<?xml version="1.0" encoding="utf-8"?>
<!-- Generator: Adobe Illustrator 25.0.0, SVG Export Plug-In . SVG Version: 6.00 Build 0)  -->
<svg version="1.1" id="Capa_1" xmlns="http://www.w3.org/2000/svg" xmlns:xlink="http://www.w3.org/1999/xlink" x="0px" y="0px"
	 viewBox="0 0 512 512" style="enable-background:new 0 0 512 512;" xml:space="preserve">
<style type="text/css">
	.st0{fill:#694DFF;}
</style>
<g>
	<g>
		<path class="st0" d="M240.8,285.6h30.3c4.1,0,7.5-3.4,7.5-7.5s-3.4-7.5-7.5-7.5h-30.3c-4.1,0-7.5,3.4-7.5,7.5
			S236.7,285.6,240.8,285.6z"/>
	</g>
	<g>
		<path class="st0" d="M221.7,94.1c-3.2-2.7-7.9-2.3-10.6,0.8l-77.9,91.2c-2.7,3.2-2.3,7.9,0.8,10.6c1.4,1.2,3.1,1.8,4.9,1.8
			c2.1,0,4.2-0.9,5.7-2.6l77.9-91.2C225.3,101.5,224.9,96.8,221.7,94.1z"/>
		<path class="st0" d="M133.9,148.6c1.4,1.3,3.2,1.9,5,1.9c2.1,0,4.1-0.9,5.6-2.5l21.1-23.7c2.8-3.1,2.5-7.8-0.6-10.6
			c-3.1-2.8-7.8-2.5-10.6,0.6L133.3,138C130.6,141.1,130.8,145.8,133.9,148.6L133.9,148.6z"/>
		<path class="st0" d="M441.8,418.9c-2-6.4-8-10.8-14.7-10.8H173.3c-4.1,0-7.5,3.4-7.5,7.5s3.4,7.5,7.5,7.5h253.9
			c0.2,0,0.4,0.1,0.4,0.3l23.1,72.9c0,0.1,0.1,0.2-0.1,0.4c-0.1,0.2-0.3,0.2-0.3,0.2H61.8c-0.1,0-0.2,0-0.3-0.2s-0.1-0.3-0.1-0.4
			l23.1-72.9c0.1-0.2,0.2-0.3,0.4-0.3h54.5c4.1,0,7.5-3.4,7.5-7.5s-3.4-7.5-7.5-7.5H84.9c-6.8,0-12.7,4.3-14.7,10.8l-23.2,73
			c-1.5,4.7-0.7,9.8,2.3,13.8c2.9,4,7.5,6.3,12.5,6.3h388.5c5,0,9.5-2.3,12.5-6.3c2.9-4,3.8-9,2.3-13.8L441.8,418.9z"/>
		<path class="st0" d="M454.1,0H57.9c-16.5,0-30,13.5-30,30v254.1c0,16.5,13.5,30,30,30h147.3c-0.5,15.1-2,40.1-5.2,54.1h-32.3
			c-4.1,0-7.5,3.4-7.5,7.5s3.4,7.5,7.5,7.5h176.5c4.1,0,7.5-3.4,7.5-7.5s-3.4-7.5-7.5-7.5H312c-3.2-14-4.7-39-5.2-54.1h147.3
			c16.5,0,30-13.5,30-30V30C484.1,13.5,470.6,0,454.1,0z M215.4,368.3c3.3-17,4.5-41.8,4.9-54.1h71.4c0.4,12.3,1.6,37.2,4.9,54.1
			H215.4z M469.1,284.2c0,8.3-6.7,15-15,15H57.9c-8.3,0-15-6.7-15-15V257H469L469.1,284.2L469.1,284.2z M469.1,241.9h-19.7V131.2
			c0-4.1-3.4-7.5-7.5-7.5s-7.5,3.4-7.5,7.5V242H77.6V50.9c0-1.1,0.9-2,2-2h352.7c1.1,0,2,0.9,2,2v46c0,4.1,3.4,7.5,7.5,7.5
			s7.5-3.4,7.5-7.5v-46c0-9.4-7.6-17-17-17H79.6c-9.4,0-17,7.6-17,17V242H42.9V30c0-8.3,6.7-15,15-15H454c8.3,0,15,6.7,15,15v211.9
			H469.1z"/>
		<path class="st0" d="M139.4,439.2h-10.2c-4.1,0-7.5,3.4-7.5,7.5s3.4,7.5,7.5,7.5h10.2c4.1,0,7.5-3.4,7.5-7.5
			C146.9,442.5,143.5,439.2,139.4,439.2z"/>
		<path class="st0" d="M169.9,454.2h10.2c4.1,0,7.5-3.4,7.5-7.5s-3.4-7.5-7.5-7.5h-10.2c-4.1,0-7.5,3.4-7.5,7.5
			C162.4,450.8,165.8,454.2,169.9,454.2z"/>
		<path class="st0" d="M210.7,454.2h10.2c4.1,0,7.5-3.4,7.5-7.5s-3.4-7.5-7.5-7.5h-10.2c-4.1,0-7.5,3.4-7.5,7.5
			C203.2,450.8,206.5,454.2,210.7,454.2z"/>
		<path class="st0" d="M251.4,454.2h10.2c4.1,0,7.5-3.4,7.5-7.5s-3.4-7.5-7.5-7.5h-10.2c-4.1,0-7.5,3.4-7.5,7.5
			C243.9,450.8,247.2,454.2,251.4,454.2L251.4,454.2z"/>
		<path class="st0" d="M292.1,454.2h10.2c4.1,0,7.5-3.4,7.5-7.5s-3.4-7.5-7.5-7.5h-10.2c-4.1,0-7.5,3.4-7.5,7.5
			C284.6,450.8,288,454.2,292.1,454.2z"/>
		<path class="st0" d="M332.8,454.2H343c4.1,0,7.5-3.4,7.5-7.5s-3.4-7.5-7.5-7.5h-10.2c-4.1,0-7.5,3.4-7.5,7.5
			C325.3,450.8,328.7,454.2,332.8,454.2z"/>
		<path class="st0" d="M372.6,454.2h10.2c4.1,0,7.5-3.4,7.5-7.5s-3.4-7.5-7.5-7.5h-10.2c-4.1,0-7.5,3.4-7.5,7.5
			C365.1,450.8,368.5,454.2,372.6,454.2z"/>
		<path class="st0" d="M139.4,466h-10.2c-4.1,0-7.5,3.4-7.5,7.5s3.4,7.5,7.5,7.5h10.2c4.1,0,7.5-3.4,7.5-7.5S143.5,466,139.4,466z"
			/>
		<path class="st0" d="M169.9,481h10.2c4.1,0,7.5-3.4,7.5-7.5s-3.4-7.5-7.5-7.5h-10.2c-4.1,0-7.5,3.4-7.5,7.5
			C162.4,477.7,165.8,481,169.9,481z"/>
		<path class="st0" d="M210.7,481h10.2c4.1,0,7.5-3.4,7.5-7.5s-3.4-7.5-7.5-7.5h-10.2c-4.1,0-7.5,3.4-7.5,7.5
			C203.2,477.7,206.5,481,210.7,481z"/>
		<path class="st0" d="M251.4,481h10.2c4.1,0,7.5-3.4,7.5-7.5s-3.4-7.5-7.5-7.5h-10.2c-4.1,0-7.5,3.4-7.5,7.5
			C243.9,477.7,247.2,481,251.4,481L251.4,481z"/>
		<path class="st0" d="M292.1,481h10.2c4.1,0,7.5-3.4,7.5-7.5s-3.4-7.5-7.5-7.5h-10.2c-4.1,0-7.5,3.4-7.5,7.5
			C284.6,477.7,288,481,292.1,481z"/>
		<path class="st0" d="M332.8,481H343c4.1,0,7.5-3.4,7.5-7.5s-3.4-7.5-7.5-7.5h-10.2c-4.1,0-7.5,3.4-7.5,7.5
			C325.3,477.7,328.7,481,332.8,481z"/>
		<path class="st0" d="M372.6,481h10.2c4.1,0,7.5-3.4,7.5-7.5s-3.4-7.5-7.5-7.5h-10.2c-4.1,0-7.5,3.4-7.5,7.5
			C365.1,477.7,368.5,481,372.6,481z"/>
	</g>
</g>
</svg>
